<svg width="17" height="17" viewBox="0 0 17 17" fill="none" xmlns="http://www.w3.org/2000/svg">
<g clip-path="url(#clip0_2986_11134)">
<path d="M8.4999 2.9198L7.7829 2.13674C6.0999 0.298614 3.0139 0.932927 1.89989 3.24386C1.37689 4.3308 1.25889 5.90011 2.21389 7.90293C3.13389 9.83136 5.0479 12.1412 8.4999 14.6572C11.9519 12.1412 13.8649 9.83136 14.7859 7.90293C15.7409 5.89905 15.6239 4.3308 15.0999 3.24386C13.9859 0.932927 10.8999 0.297552 9.2169 2.13568L8.4999 2.9198ZM8.4999 15.9376C-6.83311 5.1723 3.77889 -3.22995 8.32389 1.21449C8.38389 1.27293 8.44289 1.33349 8.4999 1.39618C8.55632 1.33355 8.61503 1.27329 8.67589 1.21555C13.2199 -3.23207 23.8329 5.17124 8.4999 15.9376Z" fill="#23A6F0"/>
</g>
<defs>
<clipPath id="clip0_2986_11134">
<rect width="16" height="17" fill="white" transform="translate(0.5)"/>
</clipPath>
</defs>
</svg>
